# xmcd
#
# Track frame offsets:
#	182
#	10900
#	22172
#	31887
#	48622
#	65535
#	83092
#	100810
#	111842
#
# Disc length: 1806 seconds
#
# Revision: 1
# Processed by: cddbd v1.5.2PL0 Copyright (c) Steve Scherf et al.
# Submitted via: EZCDAudioConverter 3.0.7.1
#
DISCID=6f070c09
DTITLE=Boots Randolph - The Best Of Boots Randolph
DYEAR=1997
DGENRE=Country
TTITLE0=Yakety Sax
TTITLE1=King Of The Road
TTITLE2=Born To Lose
TTITLE3=Stardust
TTITLE4=Crazy
TTITLE5=Smoke Gets In Your Eyes
TTITLE6=Lady
TTITLE7=Mountian Minuet
TTITLE8=Amazing Grace-Amen-Saints Go Marching In
EXTD=
EXTT0=
EXTT1=
EXTT2=
EXTT3=
EXTT4=
EXTT5=
EXTT6=
EXTT7=
EXTT8=
PLAYORDER=
